<?xml version="1.0" standalone="no"?>
<!DOCTYPE svg PUBLIC "-//W3C//DTD SVG 20010904//EN"
 "http://www.w3.org/TR/2001/REC-SVG-20010904/DTD/svg10.dtd">
<svg version="1.0" xmlns="http://www.w3.org/2000/svg"
 width="236.000000pt" height="236.000000pt" viewBox="0 0 236.000000 236.000000"
 preserveAspectRatio="xMidYMid meet">
<metadata>
Created by potrace 1.14, written by Peter Selinger 2001-2017
</metadata>
<g transform="translate(0.000000,236.000000) scale(0.100000,-0.100000)"
fill="#000000" stroke="none">
<path d="M275 2268 l0 -93 -110 0 -110 0 0 -75 c2 -210 71 -497 203 -835 18
-47 20 -78 20 -520 0 -259 1 -487 1 -508 l1 -37 262 2 262 3 0 139 c1 115 4
140 16 143 13 4 13 3 0 -7 -13 -9 -12 -10 5 -8 24 3 45 -9 45 -25 0 -7 -7 -4
-14 6 -8 10 -17 14 -20 9 -10 -17 50 -51 87 -49 33 2 67 17 38 17 -7 0 -9 5
-6 10 3 6 11 10 16 10 6 0 7 -5 3 -12 -5 -8 -2 -9 9 -5 10 4 23 -3 35 -18 12
-15 23 -20 29 -14 6 6 17 2 31 -11 12 -11 24 -20 27 -20 22 1 25 -1 19 -11 -4
-7 -1 -10 7 -7 8 3 26 -1 40 -8 15 -7 30 -10 35 -6 5 4 2 -1 -5 -11 -13 -16
-15 -16 -26 -1 -7 11 -17 14 -25 9 -9 -6 -11 -4 -5 5 5 9 4 11 -4 6 -9 -6 -9
-11 1 -24 11 -14 10 -15 -5 -9 -10 4 -21 7 -23 7 -3 0 -2 4 1 10 4 6 -1 7 -12
3 -16 -6 -16 -5 -4 10 8 10 11 20 7 24 -3 3 -6 0 -6 -8 0 -12 -2 -11 -11 1 -9
13 -10 12 -5 -3 4 -12 2 -16 -6 -11 -7 4 -2 -6 9 -22 16 -22 19 -34 11 -45 -8
-12 -9 -12 -5 1 3 9 -1 24 -8 33 -11 16 -13 16 -19 2 -3 -9 -10 -13 -16 -10
-5 3 -10 1 -10 -5 0 -7 7 -10 15 -6 8 3 19 -3 25 -13 6 -13 17 -17 30 -14 12
3 20 0 20 -7 0 -7 8 -9 20 -5 15 5 18 3 14 -9 -3 -9 3 -19 16 -26 15 -8 20 -8
16 -1 -4 6 -2 11 5 11 6 0 18 8 25 18 12 16 13 16 14 0 0 -9 -7 -21 -16 -26
-14 -8 -13 -10 2 -23 13 -10 15 -10 10 -1 -4 7 -3 18 2 25 5 7 10 26 9 42 0
17 -2 24 -4 18 -5 -14 -24 -18 -22 -5 4 22 -3 31 -18 26 -16 -5 -16 -4 1 10
19 16 41 12 31 -5 -4 -5 -2 -9 4 -9 5 0 12 6 14 13 3 7 6 5 6 -5 1 -10 6 -18
12 -18 5 0 8 4 5 8 -3 5 31 -4 74 -19 44 -15 80 -25 80 -22 0 3 12 -2 26 -12
15 -9 23 -12 20 -6 -13 21 15 11 40 -15 l26 -25 271 -2 c150 -2 280 -1 289 1
13 3 15 9 9 21 -5 9 -12 54 -15 101 -9 108 -13 143 -32 244 -21 113 -80 283
-148 428 -20 43 -36 81 -35 85 0 3 -6 10 -15 15 -9 5 -16 15 -16 22 0 8 -7 19
-15 26 -9 7 -14 19 -11 27 3 8 1 11 -4 8 -6 -3 -10 0 -10 9 0 8 -3 16 -8 18
-4 2 -22 23 -41 46 -28 36 -32 46 -20 54 11 8 10 9 -4 4 -13 -4 -20 0 -24 14
-3 11 -9 17 -14 14 -5 -3 -9 -2 -9 3 0 4 -16 26 -35 47 -19 21 -32 43 -28 49
3 6 1 7 -4 4 -6 -4 -25 7 -42 25 -23 24 -28 35 -20 45 6 7 15 10 20 7 5 -3 9
1 9 9 0 8 13 29 29 46 16 17 27 31 25 31 -2 0 7 18 21 41 44 68 111 209 148
310 39 103 107 350 107 387 l0 22 -259 0 -259 0 -22 -92 c-32 -136 -98 -334
-116 -349 -8 -6 -13 -18 -10 -26 3 -8 1 -11 -4 -8 -6 3 -10 1 -10 -4 0 -19 -2
-26 -13 -46 -6 -11 -11 -24 -12 -28 0 -4 -6 -11 -13 -16 -8 -5 -13 -11 -13
-15 1 -9 -2 -9 -31 5 -16 7 -28 16 -28 21 0 4 -3 7 -7 7 -5 -1 -11 0 -15 1 -5
1 -11 3 -15 4 -5 1 -23 10 -40 19 -18 10 -33 14 -33 11 0 -4 -8 0 -18 9 -10
10 -21 14 -25 11 -3 -4 -4 6 -1 21 4 25 3 27 -10 15 -9 -7 -13 -16 -10 -21 3
-5 -2 -6 -10 -3 -13 5 -12 9 7 24 12 10 18 22 13 27 -5 4 -11 2 -13 -5 -6 -17
-43 -36 -43 -22 0 5 8 10 17 10 14 0 15 2 4 13 -10 10 -16 8 -31 -10 -16 -20
-19 -21 -25 -6 -3 10 -3 14 1 10 14 -14 34 15 29 42 -5 23 -4 24 4 5 5 -12 14
-25 19 -28 14 -8 43 4 37 15 -3 4 -12 6 -19 3 -8 -3 -16 -1 -19 3 -3 5 3 9 13
10 11 1 22 -2 25 -8 4 -5 11 -9 17 -9 6 0 3 9 -7 20 -10 11 -13 20 -7 20 7 0
12 4 12 9 0 5 -11 9 -25 9 -20 0 -23 -3 -14 -14 8 -10 8 -14 0 -14 -6 0 -11 5
-11 11 0 5 -6 7 -12 3 -8 -5 -8 -1 1 10 13 15 13 19 0 27 -22 14 -33 11 -19
-6 9 -10 9 -15 1 -15 -6 0 -11 4 -11 8 0 5 -10 14 -22 20 -20 9 -17 10 18 7
41 -3 41 -3 30 21 -6 13 -15 24 -21 25 -18 1 -40 7 -66 17 l-26 10 1 121 1
121 -265 0 -265 0 0 -92z m572 -200 c-3 -8 -6 -5 -6 6 -1 11 2 17 5 13 3 -3 4
-12 1 -19z m47 0 c-3 -4 -9 -8 -15 -8 -5 0 -9 4 -9 8 0 5 7 9 15 9 8 0 12 -4
9 -9z m-69 -8 c-3 -5 -12 -10 -18 -10 -7 0 -6 4 3 10 19 12 23 12 15 0z m37
-45 c-2 -5 7 -13 20 -17 22 -7 22 -7 -2 -5 -14 1 -24 7 -22 12 2 6 -7 13 -20
17 -22 7 -22 7 2 5 14 -1 24 -6 22 -12z m-32 -9 c0 -3 -4 -8 -10 -11 -5 -3
-10 -1 -10 4 0 6 5 11 10 11 6 0 10 -2 10 -4z m20 -26 c0 -5 -4 -10 -10 -10
-5 0 -10 5 -10 10 0 6 5 10 10 10 6 0 10 -4 10 -10z m26 -15 c-11 -8 -25 -15
-30 -15 -6 1 0 7 14 15 32 19 40 18 16 0z m-51 -25 c-3 -5 -12 -10 -18 -10 -7
0 -6 4 3 10 19 12 23 12 15 0z m65 0 c0 -5 -4 -10 -10 -10 -5 0 -10 5 -10 10
0 6 5 10 10 10 6 0 10 -4 10 -10z m-30 -18 c0 -5 -7 -9 -15 -9 -8 0 -15 4 -15
9 0 4 7 8 15 8 8 0 15 -4 15 -8z m-30 -1376 c0 -3 -4 -8 -10 -11 -5 -3 -10 -1
-10 4 0 6 5 11 10 11 6 0 10 -2 10 -4z m15 -25 c-3 -5 -1 -12 5 -16 5 -3 10
-1 10 6 0 7 3 10 6 6 11 -10 -6 -26 -21 -20 -17 6 -20 33 -4 33 5 0 8 -4 4 -9z
m57 -30 c-8 -4 -13 -11 -13 -15 3 -23 -1 -28 -10 -12 -11 18 1 36 26 36 6 0 4
-4 -3 -9z m23 -20 c-3 -5 -1 -12 5 -16 5 -3 10 -1 10 6 0 7 2 10 5 7 8 -8 -6
-38 -17 -38 -5 0 -6 5 -3 10 10 17 -7 11 -20 -7 -9 -13 -14 -13 -20 -3 -5 8
-4 11 2 7 6 -4 15 5 21 18 7 14 14 25 17 25 4 0 4 -4 0 -9z m249 -157 c8 -21
8 -21 -8 -21 -8 0 -14 9 -13 19 2 22 13 24 21 2z m-30 -23 c3 -5 21 -7 39 -4
27 3 33 1 34 -16 1 -12 -7 -26 -18 -32 -25 -13 -32 -8 -23 15 5 14 9 14 23 4
14 -12 14 -11 3 4 -10 12 -19 15 -36 9 -14 -6 -28 -4 -41 5 -13 9 -14 14 -5
14 9 0 8 5 -6 16 -18 15 -18 15 3 4 12 -5 24 -14 27 -19z"/>
<path d="M923 2066 c4 -12 47 -18 47 -6 0 4 -11 10 -25 13 -16 3 -24 0 -22 -7z"/>
<path d="M976 2053 c-7 -8 -11 -9 -37 -12 -8 -1 -7 -6 1 -17 12 -13 15 -13 34
5 11 11 18 23 15 26 -3 3 -9 2 -13 -2z"/>
<path d="M993 2038 c-11 -15 -11 -58 0 -75 4 -7 1 -15 -8 -20 -13 -8 -13 -12
-1 -28 13 -18 15 -18 40 -2 30 20 32 29 11 47 -13 11 -15 9 -13 -8 2 -11 -1
-21 -6 -21 -5 1 -13 -5 -18 -13 -7 -9 -8 -7 -3 7 4 11 8 26 8 33 0 6 4 13 9
13 4 1 12 2 17 3 15 2 26 16 13 16 -17 0 -15 17 2 23 9 4 14 1 12 -6 -1 -7 -1
-9 1 -4 3 4 9 4 15 1 5 -3 0 -13 -11 -21 -12 -8 -19 -19 -15 -24 3 -5 14 1 24
13 14 18 21 20 32 10 8 -6 17 -9 21 -6 3 3 10 -5 17 -18 10 -21 10 -21 -3 -5
-9 11 -18 14 -21 8 -4 -5 -1 -13 5 -17 8 -4 7 -9 -2 -16 -10 -6 -7 -7 9 -3 13
4 22 2 22 -4 0 -6 -3 -10 -7 -10 -5 1 -15 1 -23 0 -13 -1 -13 -3 0 -12 12 -9
11 -10 -5 -5 -17 5 -16 3 5 -14 21 -17 22 -19 5 -14 -16 5 -17 4 -5 -5 14 -10
8 -13 -16 -10 -4 0 -11 -5 -16 -13 -7 -10 -8 -9 -4 5 4 14 -5 23 -16 15 -2 -1
-13 4 -25 11 -19 10 -22 9 -17 -4 3 -8 10 -12 15 -9 5 3 9 0 9 -6 0 -6 4 -9 9
-6 5 3 11 -1 15 -9 3 -8 12 -12 21 -9 8 4 15 1 15 -7 0 -7 3 -10 6 -6 4 3 23
-6 42 -21 20 -15 33 -22 29 -15 -4 7 0 16 10 22 13 8 14 10 4 11 -11 0 -9 4 5
14 18 14 18 15 2 21 -10 4 -18 11 -18 17 0 5 4 7 8 4 4 -2 14 0 22 5 13 8 13
10 0 19 -14 9 -7 14 13 11 5 -1 6 3 2 9 -3 5 2 10 12 11 14 0 15 2 3 6 -8 3
-18 12 -22 18 -5 8 -22 11 -43 9 -19 -1 -35 1 -35 7 0 5 8 9 18 10 13 0 12 2
-6 9 -12 5 -25 9 -28 9 -4 0 -11 5 -15 13 -7 10 -9 10 -9 -2 -1 -12 -3 -11
-11 3 -6 9 -14 15 -20 12 -5 -4 -9 -1 -9 6 0 7 -10 9 -24 7 -14 -3 -31 -1 -38
4 -9 7 -8 8 5 4 11 -3 16 -2 12 4 -8 14 -21 13 -32 -2z m22 -38 c0 -7 -7 -15
-15 -17 -13 -4 -13 -3 0 6 13 10 13 12 0 22 -13 9 -13 10 0 6 8 -2 15 -10 15
-17z m207 -65 c5 -5 -4 -20 -20 -33 -15 -12 -19 -20 -9 -16 10 4 17 1 17 -6 0
-6 -4 -9 -9 -6 -5 3 -14 -1 -20 -8 -10 -11 -8 -16 10 -21 20 -7 20 -8 5 -17
-9 -5 -14 -13 -11 -18 12 -20 -14 -18 -43 3 -29 22 -30 24 -11 35 12 8 17 17
12 25 -12 20 -12 37 0 34 7 -1 12 5 12 13 0 8 4 18 8 21 13 9 51 5 59 -6z"/>
<path d="M1167 1914 c-18 -19 -23 -32 -16 -40 6 -8 4 -15 -6 -24 -17 -14 -12
-25 18 -41 12 -7 19 -8 15 -4 -4 5 -2 15 4 24 10 13 10 14 -2 4 -20 -18 -35
-16 -20 2 7 8 9 15 5 15 -4 0 -2 7 5 15 7 8 9 15 4 15 -5 1 2 10 15 21 17 14
21 23 14 30 -7 7 -19 2 -36 -17z m15 -7 c-12 -13 -19 -27 -15 -32 5 -4 2 -5
-5 -1 -11 6 -8 13 9 32 12 13 25 24 27 24 3 0 -4 -10 -16 -23z"/>
<path d="M1072 1962 c-10 -19 -5 -43 12 -54 7 -5 6 -8 -4 -8 -13 0 -13 -1 0
-10 12 -7 10 -9 -7 -7 -17 1 -19 4 -11 14 7 9 7 13 -1 13 -7 0 -9 5 -5 13 4 6
-1 4 -12 -5 -11 -9 -30 -21 -42 -25 l-23 -9 22 -19 22 -20 -8 24 c-6 21 -5 23
11 17 11 -4 27 -9 38 -11 10 -3 24 -9 31 -15 14 -12 16 5 2 26 -3 6 -3 14 1
18 4 4 7 20 8 36 1 33 -21 48 -34 22z m21 -5 c3 -8 -1 -14 -8 -14 -7 0 -11 6
-8 14 3 7 6 13 8 13 2 0 5 -6 8 -13z"/>
<path d="M1635 1530 c-4 -6 -11 -7 -17 -4 -7 4 -8 2 -4 -5 6 -9 11 -9 22 0 14
11 18 19 10 19 -3 0 -8 -5 -11 -10z"/>
<path d="M1676 1527 c3 -10 9 -15 12 -12 3 3 0 11 -7 18 -10 9 -11 8 -5 -6z"/>
<path d="M1570 1497 c0 -2 6 -10 14 -16 11 -9 16 -9 22 1 4 7 4 10 -1 6 -4 -4
-14 -3 -22 3 -7 6 -13 9 -13 6z"/>
<path d="M1690 1459 c0 -5 5 -7 10 -4 6 3 10 8 10 11 0 2 -4 4 -10 4 -5 0 -10
-5 -10 -11z"/>
<path d="M1646 1418 c3 -5 10 -6 15 -3 13 9 11 12 -6 12 -8 0 -12 -4 -9 -9z"/>
<path d="M975 417 c-11 -8 -30 -13 -42 -12 -13 1 -23 0 -23 -2 0 -16 109 -90
133 -90 14 0 22 10 15 20 -1 1 4 12 10 23 9 17 9 24 -2 33 -11 9 -16 9 -21 0
-5 -7 -15 -2 -29 15 -19 24 -23 25 -41 13z m69 -38 c12 19 27 2 16 -18 -5 -10
-6 -22 -2 -26 4 -4 -3 -3 -15 4 -31 16 -38 14 -22 -6 11 -13 8 -13 -13 2 -15
11 -25 26 -23 33 3 9 -1 11 -14 7 -11 -3 -21 0 -24 9 -4 11 0 13 19 10 13 -2
24 -1 23 3 -4 25 4 25 24 -1 16 -20 26 -26 31 -17z"/>
<path d="M994 374 c3 -23 52 -28 60 -7 5 13 4 13 -8 4 -11 -9 -17 -8 -29 4
-20 19 -26 19 -23 -1z"/>
<path d="M1290 280 c0 -5 5 -10 11 -10 5 0 7 5 4 10 -3 6 -8 10 -11 10 -2 0
-4 -4 -4 -10z"/>
<path d="M1265 269 c-4 -6 -5 -12 -2 -15 2 -3 7 2 10 11 7 17 1 20 -8 4z"/>
<path d="M1272 244 c-7 -8 -8 -14 -3 -14 10 0 25 19 20 25 -2 1 -10 -3 -17
-11z"/>
<path d="M1300 241 c-12 -24 -13 -34 -1 -27 9 6 22 46 15 46 -2 0 -8 -9 -14
-19z"/>
<path d="M1387 247 c-3 -8 1 -14 8 -14 7 0 11 6 8 14 -6 16 -10 16 -16 0z"/>
<path d="M1332 233 c3 -17 38 -28 38 -11 0 6 -7 7 -16 4 -12 -4 -15 -2 -10 9
3 8 1 15 -5 15 -6 0 -9 -7 -7 -17z"/>
<path d="M1430 226 c0 -2 7 -7 16 -10 8 -3 12 -2 9 4 -6 10 -25 14 -25 6z"/>
<path d="M1250 205 c0 -8 2 -15 4 -15 2 0 6 7 10 15 3 8 1 15 -4 15 -6 0 -10
-7 -10 -15z"/>
<path d="M1381 204 c0 -11 3 -14 6 -6 3 7 2 16 -1 19 -3 4 -6 -2 -5 -13z"/>
<path d="M1312 194 c2 -8 8 -15 13 -16 6 -1 16 -8 23 -17 11 -14 11 -13 2 7
-6 13 -16 20 -22 16 -7 -5 -9 -1 -5 9 3 10 2 17 -4 17 -6 0 -9 -7 -7 -16z"/>
<path d="M1267 186 c-4 -10 -1 -13 9 -9 15 6 19 23 5 23 -5 0 -11 -7 -14 -14z"/>
<path d="M1356 187 c3 -10 9 -15 12 -12 3 3 0 11 -7 18 -10 9 -11 8 -5 -6z"/>
<path d="M1440 180 c-9 -6 -10 -10 -3 -10 6 0 15 5 18 10 8 12 4 12 -15 0z"/>
<path d="M1290 166 c0 -2 7 -7 16 -10 8 -3 12 -2 9 4 -6 10 -25 14 -25 6z"/>
<path d="M1396 135 c-11 -8 -15 -15 -9 -15 6 0 16 7 23 15 16 19 11 19 -14 0z"/>
<path d="M1420 126 c0 -2 8 -10 18 -17 15 -13 16 -12 3 4 -13 16 -21 21 -21
13z"/>
<path d="M1495 100 c3 -5 8 -10 11 -10 2 0 4 5 4 10 0 6 -5 10 -11 10 -5 0 -7
-4 -4 -10z"/>
<path d="M1530 99 c0 -5 5 -7 10 -4 6 3 10 8 10 11 0 2 -4 4 -10 4 -5 0 -10
-5 -10 -11z"/>
<path d="M1576 102 c-3 -5 1 -9 9 -9 8 0 12 4 9 9 -3 4 -7 8 -9 8 -2 0 -6 -4
-9 -8z"/>
</g>
</svg>
